# xmcd
#
# Track frame offsets: 
#        150
#        15442
#        34860
#        53530
#        69645
#        82187
#        99485
#        120247
#        133075
#        152135
#        179125
#        203940
#
# Disc length: 2980 seconds
#
# Revision: 4
# Processed by: cddbd v1.5.2PL0 Copyright (c) Steve Scherf et al.
# Submitted via: ExactAudioCopy v0.99pb5
#
DISCID=a10ba20c
DTITLE=Vince Gill - Breath Of Heaven
DYEAR=1998
DGENRE=Country
TTITLE0=Winter Wonderland
TTITLE1=The Christmas Song
TTITLE2=O Little Town Of Bethlehem
TTITLE3=Silver Bells
TTITLE4=It's The Most Wonderful Time Of The Year
TTITLE5=Blue Christmas
TTITLE6=O Holy Night
TTITLE7=Let It Snow, Let It Snow, Let It Snow
TTITLE8=A Cradle In Bethlehem
TTITLE9=Breath Of Heaven (Mary's Song)
TTITLE10=O Come All Ye Faithful
TTITLE11=Data Track
EXTD=A christmas collection with Patrick\nWilliams and his Orchestra Y
EXTD=EAR: 1998 ID3G:   2
EXTT0=
EXTT1=
EXTT2=
EXTT3=
EXTT4=
EXTT5=
EXTT6=
EXTT7=
EXTT8=
EXTT9=
EXTT10=
EXTT11=
PLAYORDER=
